{"glyphs":{"0":{"ha":997,"x_min":69,"x_max":928,"o":"m 560 1042 q 703 1013 636 1042 q 819 933 769 983 q 899 817 869 883 q 928 674 928 750 l 928 368 q 899 225 928 292 q 819 108 869 158 q 703 29 769 58 q 560 0 636 0 l 438 0 q 294 29 361 0 q 178 108 228 58 q 99 225 128 158 q 69 368 69 292 l 69 674 q 99 817 69 750 q 178 933 128 883 q 294 1013 228 983 q 438 1042 361 1042 l 560 1042 m 682 674 q 647 760 682 724 q 560 796 611 796 l 438 796 q 351 760 386 796 q 315 674 315 724 l 315 368 q 351 282 315 318 q 438 246 386 246 l 560 246 q 647 282 611 246 q 682 368 682 318 l 682 674 z "},"1":{"ha":572,"x_min":69,"x_max":503,"o":"m 69 1042 l 503 1042 l 503 0 l 257 0 l 257 796 l 69 796 l 69 1042 z "},"2":{"ha":999,"x_min":69,"x_max":929,"o":"m 315 354 l 315 246 l 929 246 l 929 0 l 69 0 l 69 565 l 621 650 q 666 674 649 654 q 683 722 683 694 q 662 774 683 753 q 610 796 640 796 l 69 796 l 69 1042 l 610 1042 q 733 1017 675 1042 q 835 948 792 992 q 904 847 879 904 q 929 722 929 789 q 909 610 929 663 q 853 515 889 557 q 767 444 817 472 q 658 407 717 417 l 315 354 z "},"3":{"ha":974,"x_min":69,"x_max":904,"o":"m 69 1042 l 904 1042 l 904 763 q 882 638 904 696 q 819 533 860 579 q 882 429 860 488 q 904 304 904 371 l 904 0 l 69 0 l 69 246 l 658 246 l 658 304 q 627 380 658 349 q 551 411 596 411 l 168 411 l 168 657 l 551 657 q 627 688 596 657 q 658 763 658 718 l 658 796 l 69 796 l 69 1042 z "},"4":{"ha":1090,"x_min":69,"x_max":1021,"o":"m 928 504 l 1021 504 l 1021 258 l 928 258 l 928 0 l 682 0 l 682 258 l 438 258 q 294 288 361 258 q 178 367 228 317 q 99 483 128 417 q 69 626 69 550 l 69 1042 l 315 1042 l 315 626 q 351 540 315 576 q 438 504 386 504 l 682 504 l 682 1042 l 928 1042 l 928 504 z "},"5":{"ha":997,"x_min":69,"x_max":928,"o":"m 69 1042 l 928 1042 l 928 796 l 315 796 l 315 657 l 928 657 l 928 521 q 891 306 928 403 q 786 142 854 210 q 622 37 718 74 q 407 0 526 0 l 69 0 l 69 246 l 407 246 q 513 259 468 246 q 588 295 557 272 q 639 348 619 318 q 668 411 658 378 l 69 411 l 69 1042 z "},"6":{"ha":1001,"x_min":69,"x_max":932,"o":"m 315 657 l 932 657 l 932 329 q 906 201 932 261 q 835 97 881 142 q 731 26 790 51 q 603 0 671 0 l 69 0 l 69 674 q 99 817 69 750 q 178 933 128 883 q 295 1013 228 983 q 439 1042 363 1042 l 929 1042 l 929 796 l 439 796 q 391 786 414 796 q 351 760 368 776 q 325 721 335 743 q 315 674 315 699 l 315 657 m 315 411 l 315 246 l 603 246 q 662 270 638 246 q 686 329 686 294 l 686 411 l 315 411 z "},"7":{"ha":999,"x_min":69,"x_max":929,"o":"m 69 1042 l 929 1042 l 929 796 q 907 678 929 733 q 849 571 885 622 q 769 472 814 519 q 676 376 724 424 q 590 286 633 332 q 514 194 547 240 q 460 99 481 147 q 439 0 439 50 l 193 0 q 222 165 193 88 q 296 310 251 242 q 396 437 340 378 q 503 549 451 496 q 569 616 536 582 q 626 682 601 650 q 667 743 651 714 q 683 796 683 772 l 69 796 l 69 1042 z "},"8":{"ha":999,"x_min":69,"x_max":929,"o":"m 615 1042 q 738 1017 681 1042 q 837 949 794 992 q 904 850 879 907 q 929 728 929 793 q 910 621 929 671 q 860 531 892 571 q 910 438 892 489 q 929 329 929 388 q 903 201 929 261 q 833 97 878 142 q 728 26 788 51 q 600 0 668 0 l 399 0 q 271 26 331 0 q 167 97 211 51 q 96 201 122 142 q 69 329 69 261 q 96 458 69 397 q 167 563 122 518 l 69 563 l 69 728 q 94 850 69 793 q 162 949 119 907 q 262 1017 204 992 q 385 1042 319 1042 l 615 1042 m 385 796 q 335 776 356 796 q 315 728 315 756 l 315 647 q 372 657 342 654 l 372 658 l 615 658 q 663 678 643 658 q 683 728 683 699 q 663 776 683 756 q 615 796 643 796 l 385 796 m 600 246 q 659 270 635 246 q 683 329 683 294 q 659 388 683 364 q 600 413 635 413 l 399 413 q 340 388 364 413 q 315 329 315 364 q 340 270 315 294 q 399 246 364 246 l 600 246 z "},"9":{"ha":1001,"x_min":69,"x_max":932,"o":"m 69 713 q 95 840 69 781 q 166 945 121 900 q 271 1016 211 990 q 399 1042 331 1042 l 932 1042 l 932 368 q 903 225 932 292 q 824 108 874 158 q 706 29 774 58 q 563 0 639 0 l 72 0 l 72 246 l 563 246 q 610 256 588 246 q 650 282 633 265 q 676 321 667 299 q 686 368 686 343 l 686 385 l 69 385 l 69 713 m 686 796 l 399 796 q 340 772 364 796 q 315 713 315 747 l 315 631 l 686 631 l 686 796 z "},"\u0000":{"ha":0,"x_min":0,"x_max":0,"o":""},"\r":{"ha":347,"x_min":0,"x_max":0,"o":""}," ":{"ha":389,"x_min":0,"x_max":0,"o":""},"A":{"ha":1042,"x_min":56,"x_max":986,"o":"m 56 1042 l 986 1042 l 986 0 l 742 0 l 742 365 l 456 365 q 419 216 451 286 q 332 94 386 146 q 207 13 278 43 q 56 -17 136 -17 l 56 229 q 111 240 85 229 q 158 269 138 250 q 192 312 179 288 q 208 365 206 336 l 56 365 l 56 586 l 210 586 l 210 796 l 56 796 l 56 1042 m 742 796 l 456 796 l 456 586 l 742 586 l 742 796 z "},"B":{"ha":1131,"x_min":56,"x_max":1075,"o":"m 1032 919 q 1028 840 1032 882 q 1011 753 1024 797 q 976 667 999 710 q 915 588 953 625 l 1075 588 l 1075 0 l 215 0 l 215 796 l 56 796 l 56 1042 l 1032 1042 l 1032 919 m 461 796 l 461 615 q 598 626 542 615 q 691 660 654 638 q 748 716 728 682 q 776 796 768 750 l 461 796 m 829 369 l 461 369 l 461 246 l 829 246 l 829 369 z "},"C":{"ha":1131,"x_min":56,"x_max":1075,"o":"m 56 1042 l 1075 1042 l 1075 796 l 463 796 l 463 368 q 498 282 463 318 q 585 246 533 246 l 1075 246 l 1075 0 l 585 0 q 442 29 508 0 q 325 108 375 58 q 246 225 275 158 q 217 368 217 292 l 217 796 l 56 796 l 56 1042 z "},"D":{"ha":1132,"x_min":56,"x_max":1076,"o":"m 56 1042 l 1076 1042 l 1076 368 q 1047 225 1076 292 q 968 108 1018 158 q 851 29 918 58 q 707 0 783 0 l 56 0 l 56 246 l 217 246 l 217 796 l 56 796 l 56 1042 m 831 796 l 463 796 l 463 246 l 707 246 q 755 256 732 246 q 794 282 778 265 q 821 321 811 299 q 831 368 831 343 l 831 796 z "},"E":{"ha":1050,"x_min":56,"x_max":994,"o":"m 56 1042 l 994 1042 l 994 796 l 464 796 l 464 625 l 889 625 l 889 404 l 464 404 l 464 246 l 994 246 l 994 0 l 56 0 l 56 246 l 218 246 l 218 796 l 56 796 l 56 1042 z "},"F":{"ha":1050,"x_min":56,"x_max":994,"o":"m 56 1042 l 994 1042 l 994 796 l 463 796 l 463 625 l 888 625 l 888 404 l 463 404 l 463 0 l 217 0 l 217 796 l 56 796 l 56 1042 z "},"G":{"ha":1132,"x_min":56,"x_max":1076,"o":"m 56 1042 l 1076 1042 l 1076 796 l 463 796 l 463 368 q 472 321 463 343 q 499 282 482 299 q 538 256 515 265 q 586 246 561 246 l 831 246 l 831 411 l 621 411 l 621 657 l 1076 657 l 1076 -201 l 831 -201 l 831 0 l 586 0 q 442 29 510 0 q 325 108 375 58 q 246 225 275 158 q 217 368 217 292 l 217 796 l 56 796 l 56 1042 z "},"H":{"ha":1131,"x_min":56,"x_max":1075,"o":"m 831 1042 l 1075 1042 l 1075 0 l 683 0 l 683 246 l 831 246 l 831 414 l 463 414 l 463 300 q 433 117 463 193 q 361 -11 403 40 q 276 -92 319 -62 q 204 -135 232 -122 l 97 85 q 124 99 104 88 q 164 135 143 110 q 201 200 185 160 q 217 300 217 240 l 217 414 l 56 414 l 56 660 l 217 660 l 217 1042 l 463 1042 l 463 660 l 831 660 l 831 1042 z "},"I":{"ha":615,"x_min":56,"x_max":560,"o":"m 56 1042 l 560 1042 l 560 796 l 431 796 l 431 246 l 560 246 l 560 0 l 56 0 l 56 246 l 185 246 l 185 796 l 56 796 l 56 1042 z "},"J":{"ha":740,"x_min":56,"x_max":685,"o":"m 56 1042 l 685 1042 l 685 449 q 635 203 685 318 q 501 3 586 89 q 301 -131 415 -82 q 56 -181 186 -181 l 56 65 q 205 96 135 65 q 327 178 275 126 q 409 300 379 231 q 439 449 439 369 l 439 796 l 56 796 l 56 1042 z "},"K":{"ha":1106,"x_min":56,"x_max":1050,"o":"m 818 531 q 988 332 925 451 q 1050 71 1050 213 l 1050 0 l 804 0 l 804 71 q 778 199 804 139 q 708 303 753 258 q 604 373 664 347 q 476 399 544 399 l 438 399 l 438 0 l 192 0 l 192 399 l 56 399 l 56 643 l 192 643 l 192 1042 l 438 1042 l 438 643 l 453 643 q 581 669 521 643 q 685 739 640 694 q 755 843 729 783 q 781 971 781 903 l 781 1042 l 1026 1042 l 1026 971 q 970 724 1026 838 q 818 531 914 610 z "},"L":{"ha":936,"x_min":56,"x_max":881,"o":"m 301 247 q 474 279 396 254 q 607 331 551 304 q 694 381 663 358 q 725 403 725 403 l 881 213 q 856 194 878 211 q 794 154 833 178 q 698 103 754 131 q 572 53 642 76 q 419 15 501 31 q 243 0 336 0 l 56 0 l 56 1042 l 301 1042 l 301 247 z "},"M":{"ha":1467,"x_min":56,"x_max":1411,"o":"m 1411 1042 l 1411 0 l 1165 0 l 1165 774 q 1073 722 1115 756 q 1001 646 1031 689 q 953 551 971 603 q 936 443 936 500 l 936 0 l 690 0 l 690 443 q 673 551 690 500 q 626 646 656 603 q 553 722 596 689 q 461 774 511 756 l 461 0 l 215 0 l 215 796 l 56 796 l 56 1042 l 338 1042 q 608 978 485 1042 q 814 806 731 914 q 1019 978 896 914 q 1289 1042 1142 1042 l 1411 1042 z "},"N":{"ha":1131,"x_min":56,"x_max":1075,"o":"m 1075 1042 l 1075 0 l 829 0 l 829 63 q 803 258 829 164 q 730 434 778 351 q 614 586 682 517 q 461 707 546 656 l 461 0 l 215 0 l 215 793 q 192 795 204 794 q 169 796 181 796 l 56 796 l 56 1042 l 169 1042 q 355 1017 263 1042 q 533 948 447 992 q 694 845 618 904 q 829 717 769 786 l 829 1042 l 1075 1042 z "},"O":{"ha":1131,"x_min":56,"x_max":1075,"o":"m 788 1042 q 899 1019 847 1042 q 990 957 951 996 q 1052 866 1029 918 q 1075 756 1075 814 l 1075 0 l 501 0 q 391 23 443 0 q 300 85 339 46 q 238 176 261 124 q 215 286 215 228 l 215 796 l 56 796 l 56 1042 l 788 1042 m 829 756 q 817 784 829 772 q 788 796 804 796 l 461 796 l 461 286 q 473 258 461 269 q 501 246 485 246 l 829 246 l 829 756 z "},"P":{"ha":1088,"x_min":56,"x_max":1032,"o":"m 56 1042 l 1032 1042 l 1032 701 q 1000 545 1032 618 q 914 418 968 472 q 787 333 860 364 q 632 301 714 301 l 461 301 l 461 0 l 215 0 l 215 796 l 56 796 l 56 1042 m 786 796 l 461 796 l 461 547 l 632 547 q 692 560 664 547 q 740 593 719 572 q 774 642 761 614 q 786 701 786 669 l 786 796 z "},"Q":{"ha":1129,"x_min":56,"x_max":1074,"o":"m 788 1042 q 899 1019 847 1042 q 990 957 951 996 q 1051 866 1029 918 q 1074 756 1074 814 l 1074 0 l 828 0 q 901 -88 851 -53 q 1007 -136 951 -124 l 1006 -136 l 961 -378 q 856 -344 915 -369 q 740 -274 797 -319 q 637 -160 683 -228 q 569 0 590 -93 l 501 0 q 390 23 442 0 q 299 85 338 46 q 238 176 260 124 q 215 286 215 228 l 215 796 l 56 796 l 56 1042 l 788 1042 m 828 756 q 816 784 828 772 q 788 796 804 796 l 461 796 l 461 286 q 473 258 461 269 q 501 246 485 246 l 828 246 l 828 756 z "},"R":{"ha":1131,"x_min":56,"x_max":1075,"o":"m 858 372 q 933 269 879 310 q 1058 229 988 229 l 1075 229 l 1075 -17 l 1058 -17 q 913 7 982 -17 q 786 73 843 31 q 687 174 729 115 q 622 301 644 232 l 461 301 l 461 0 l 215 0 l 215 796 l 56 796 l 56 1042 l 1032 1042 l 1032 701 q 985 513 1032 599 q 858 372 938 426 m 461 547 l 632 547 q 692 560 664 547 q 740 593 719 572 q 774 642 761 614 q 786 701 786 669 l 786 796 l 461 796 l 461 547 z "},"S":{"ha":946,"x_min":56,"x_max":890,"o":"m 644 1176 l 890 1176 l 890 796 l 301 796 l 301 643 l 890 643 l 890 342 q 863 208 890 271 q 790 100 836 146 q 683 27 744 54 q 550 0 621 0 l 56 0 l 56 246 l 550 246 q 617 274 589 246 q 644 342 644 301 l 644 399 l 56 399 l 56 1042 l 644 1042 l 644 1176 z "},"T":{"ha":990,"x_min":56,"x_max":935,"o":"m 56 1042 l 935 1042 l 935 796 l 618 796 l 618 0 l 372 0 l 372 796 l 56 796 l 56 1042 z "},"U":{"ha":1163,"x_min":56,"x_max":1107,"o":"m 1074 293 q 1078 187 1074 233 q 1090 108 1083 140 q 1101 60 1096 76 q 1107 43 1107 43 l 1106 44 l 878 -44 q 861 8 875 -37 q 838 136 847 53 q 666 36 761 72 q 464 0 571 0 l 215 0 l 215 796 l 56 796 l 56 1042 l 461 1042 l 461 246 l 492 246 q 622 272 561 246 q 729 344 683 299 q 801 451 775 390 q 828 582 828 513 l 828 1042 l 1074 1042 l 1074 293 z "},"V":{"ha":1131,"x_min":56,"x_max":1075,"o":"m 829 1042 l 1075 1042 l 1075 0 l 951 0 q 624 58 760 0 q 401 222 489 117 q 269 473 313 326 q 217 796 225 619 l 56 796 l 56 1042 l 461 1042 l 461 875 q 474 668 461 771 q 526 480 486 565 q 638 335 565 394 q 829 256 710 275 l 829 1042 z "},"W":{"ha":1468,"x_min":56,"x_max":1413,"o":"m 1167 1042 l 1413 1042 l 1413 0 l 1282 0 q 1015 63 1138 0 q 810 233 893 126 q 606 63 728 126 q 338 0 483 0 l 215 0 l 215 796 l 56 796 l 56 1042 l 461 1042 l 461 268 q 552 319 511 288 q 624 394 593 351 q 671 488 654 438 q 688 594 688 539 l 688 1042 l 933 1042 l 933 594 q 951 486 933 538 q 999 392 968 435 q 1073 316 1031 349 q 1167 265 1115 283 l 1167 1042 z "},"X":{"ha":971,"x_min":56,"x_max":915,"o":"m 915 1042 q 857 767 915 897 q 692 540 799 636 l 669 521 l 692 501 q 857 275 799 406 q 915 0 915 144 l 669 0 q 633 174 669 92 q 528 318 596 257 l 486 356 l 444 318 q 339 174 376 257 q 301 0 301 92 l 56 0 q 114 275 56 144 q 281 501 172 406 l 301 521 l 281 540 q 114 767 172 636 q 56 1042 56 897 l 301 1042 q 339 867 301 950 q 444 724 376 785 l 486 686 l 528 724 q 633 867 596 785 q 669 1042 669 950 l 915 1042 z "},"Y":{"ha":971,"x_min":56,"x_max":915,"o":"m 554 556 q 640 777 611 656 q 669 1042 669 899 l 915 1042 q 890 770 915 892 q 826 553 865 649 q 739 387 788 458 q 644 265 690 315 q 373 69 526 139 q 56 0 219 0 l 56 246 q 227 276 143 246 q 386 361 311 306 q 247 469 308 403 q 143 623 186 536 q 78 815 100 710 q 56 1042 56 921 l 301 1042 q 319 865 301 946 q 369 720 336 783 q 449 615 403 657 q 554 556 496 572 z "},"Z":{"ha":971,"x_min":56,"x_max":915,"o":"m 349 340 q 315 315 328 333 q 301 274 301 297 l 301 246 l 915 246 l 915 0 l 56 0 l 56 274 q 71 370 56 324 q 114 456 86 417 q 180 524 142 494 q 265 571 218 554 l 622 701 q 657 726 644 708 q 669 768 669 744 l 669 796 l 56 796 l 56 1042 l 915 1042 l 915 768 q 900 672 915 718 q 858 586 885 625 q 792 517 831 547 q 707 471 754 488 l 349 340 z "},"a":{"ha":1056,"x_min":56,"x_max":1000,"o":"m 915 297 q 931 261 915 276 q 967 246 946 246 l 1000 246 l 1000 0 l 967 0 q 855 22 907 0 q 763 82 803 43 q 663 22 718 43 q 546 0 608 0 l 383 0 q 256 26 315 0 q 151 96 196 51 q 81 200 107 140 q 56 328 56 260 l 56 663 l 669 663 l 669 674 q 660 721 669 699 q 633 760 650 743 q 594 786 617 776 q 546 796 571 796 l 97 796 l 97 1042 l 546 1042 q 690 1013 622 1042 q 807 933 757 983 q 886 817 857 883 q 915 674 915 750 l 915 297 m 588 246 q 645 269 621 246 q 669 328 669 293 l 669 417 l 301 417 l 301 328 q 326 269 301 293 q 383 246 350 246 l 588 246 z "},"b":{"ha":969,"x_min":56,"x_max":914,"o":"m 56 1042 l 914 1042 l 914 776 q 888 644 914 706 q 817 533 861 582 q 888 424 861 486 q 914 290 914 361 l 914 0 l 56 0 l 56 1042 m 300 643 l 563 643 q 638 674 607 643 q 668 749 668 704 l 668 796 l 300 796 l 300 643 m 668 318 q 638 394 668 363 q 563 425 607 425 l 300 425 l 300 246 l 668 246 l 668 318 z "},"c":{"ha":971,"x_min":56,"x_max":915,"o":"m 56 1042 l 915 1042 l 915 521 l 669 521 l 669 796 l 301 796 l 301 368 q 311 321 301 343 q 338 282 321 299 q 377 256 354 265 q 425 246 400 246 l 915 246 l 915 0 l 425 0 q 281 29 349 0 q 164 108 214 58 q 85 225 114 158 q 56 368 56 292 l 56 1042 z "},"d":{"ha":971,"x_min":56,"x_max":915,"o":"m 547 1042 q 690 1013 624 1042 q 807 933 757 983 q 886 817 857 883 q 915 674 915 750 l 915 368 q 886 225 915 292 q 807 108 857 158 q 690 29 757 58 q 547 0 624 0 l 56 0 l 56 1042 l 547 1042 m 669 674 q 660 721 669 699 q 633 760 650 743 q 594 786 617 776 q 547 796 572 796 l 301 796 l 301 246 l 547 246 q 594 256 572 246 q 633 282 617 265 q 660 321 650 299 q 669 368 669 343 l 669 674 z "},"e":{"ha":971,"x_min":56,"x_max":915,"o":"m 56 1042 l 915 1042 l 915 778 q 885 630 915 699 q 804 510 856 561 q 683 428 753 458 q 536 399 614 399 l 301 399 l 301 368 q 338 282 301 318 q 424 246 374 246 l 915 246 l 915 0 l 424 0 q 281 29 347 0 q 164 108 214 58 q 85 225 114 158 q 56 368 56 292 l 56 1042 m 301 629 l 536 629 q 588 640 564 629 q 631 669 613 650 q 659 712 649 688 q 669 764 669 736 l 669 796 l 301 796 l 301 629 z "},"f":{"ha":847,"x_min":56,"x_max":792,"o":"m 56 1042 l 792 1042 l 792 796 l 301 796 l 301 657 l 792 657 l 792 411 l 301 411 l 301 0 l 56 0 l 56 1042 z "},"g":{"ha":969,"x_min":56,"x_max":914,"o":"m 56 1042 l 914 1042 l 914 796 l 300 796 l 300 368 q 310 321 300 343 q 336 282 319 299 q 376 256 353 265 q 424 246 399 246 l 668 246 l 668 411 l 458 411 l 458 657 l 914 657 l 914 0 l 424 0 q 281 29 347 0 q 164 108 214 58 q 85 225 114 158 q 56 368 56 292 l 56 1042 z "},"h":{"ha":971,"x_min":56,"x_max":915,"o":"m 669 1042 l 915 1042 l 915 0 l 669 0 l 669 414 l 301 414 l 301 0 l 56 0 l 56 1042 l 301 1042 l 301 660 l 669 660 l 669 1042 z "},"i":{"ha":357,"x_min":56,"x_max":301,"o":"m 56 1042 l 301 1042 l 301 0 l 56 0 l 56 1042 z "},"j":{"ha":788,"x_min":56,"x_max":732,"o":"m 133 1042 l 732 1042 l 732 368 q 703 225 732 292 q 624 108 674 158 q 507 29 574 58 q 364 0 440 0 l 56 0 l 56 246 l 364 246 q 451 282 415 246 q 486 368 486 318 l 486 796 l 133 796 l 133 1042 z "},"k":{"ha":969,"x_min":56,"x_max":914,"o":"m 628 492 q 666 348 636 401 q 737 266 696 294 q 824 229 778 238 q 914 221 871 221 l 914 -25 q 565 87 700 -25 q 393 403 431 199 q 315 399 356 399 l 300 399 l 300 0 l 56 0 l 56 1042 l 300 1042 l 300 643 l 315 643 q 443 669 383 643 q 547 739 503 694 q 617 843 592 783 q 643 971 643 903 l 643 1042 l 889 1042 l 889 971 q 870 826 889 896 q 817 694 851 756 q 735 581 783 633 q 628 492 686 529 z "},"l":{"ha":847,"x_min":56,"x_max":792,"o":"m 301 246 l 792 246 l 792 0 l 56 0 l 56 1042 l 301 1042 l 301 246 z "},"m":{"ha":1350,"x_min":56,"x_max":1294,"o":"m 1211 360 q 1224 221 1211 276 q 1253 132 1238 165 q 1294 69 1271 92 l 1294 68 l 1096 -76 q 1051 -12 1075 -51 q 1009 79 1028 26 q 978 202 990 132 q 965 360 965 272 l 965 796 l 757 796 l 757 0 l 511 0 l 511 796 l 425 796 q 377 786 400 796 q 338 760 354 776 q 311 721 321 743 q 301 674 301 699 l 301 0 l 56 0 l 56 674 q 85 817 56 750 q 164 933 114 883 q 281 1013 214 983 q 425 1042 349 1042 l 1211 1042 l 1211 360 z "},"n":{"ha":1017,"x_min":56,"x_max":961,"o":"m 961 72 l 763 -72 q 719 -9 742 -47 q 678 83 697 29 q 648 205 660 136 q 636 360 636 274 l 636 796 l 424 796 q 337 760 372 796 q 301 674 301 724 l 301 0 l 56 0 l 56 674 q 85 817 56 750 q 164 933 114 883 q 281 1013 214 983 q 424 1042 347 1042 l 882 1042 l 882 360 q 885 287 882 326 q 898 208 889 247 q 922 134 907 169 q 961 72 938 99 z "},"o":{"ha":969,"x_min":56,"x_max":914,"o":"m 628 1042 q 740 1019 688 1042 q 831 957 792 996 q 892 866 869 918 q 914 756 914 814 l 914 0 l 342 0 q 230 23 282 0 q 139 85 178 46 q 78 176 100 124 q 56 286 56 228 l 56 1042 l 628 1042 m 668 756 q 656 784 668 772 q 628 796 644 796 l 301 796 l 301 286 q 313 258 301 269 q 342 246 325 246 l 668 246 l 668 756 z "},"p":{"ha":928,"x_min":56,"x_max":872,"o":"m 56 1042 l 872 1042 l 872 701 q 841 545 872 618 q 756 418 810 472 q 628 333 701 364 q 472 301 556 301 l 301 301 l 301 0 l 56 0 l 56 1042 m 301 547 l 472 547 q 532 560 504 547 q 581 593 560 572 q 614 642 601 614 q 626 701 626 669 l 626 796 l 301 796 l 301 547 z "},"q":{"ha":971,"x_min":56,"x_max":915,"o":"m 628 1042 q 740 1019 688 1042 q 831 957 792 996 q 892 866 869 918 q 915 756 915 814 l 915 -325 l 669 -325 l 669 0 l 343 0 q 231 23 283 0 q 140 85 179 46 q 78 176 101 124 q 56 286 56 228 l 56 1042 l 628 1042 m 301 286 q 313 258 301 269 q 343 246 325 246 l 669 246 l 669 756 q 658 784 669 772 q 628 796 646 796 l 301 796 l 301 286 z "},"r":{"ha":953,"x_min":56,"x_max":897,"o":"m 706 400 q 845 228 793 329 q 897 0 897 126 l 651 0 q 628 117 651 63 q 563 213 604 172 q 467 278 522 254 q 350 301 413 301 l 301 301 l 301 0 l 56 0 l 56 1042 l 872 1042 l 872 715 q 826 533 872 615 q 706 400 781 451 m 301 533 l 472 533 q 532 546 504 533 q 581 579 560 558 q 614 628 601 600 q 626 688 626 656 l 626 796 l 301 796 l 301 533 z "},"s":{"ha":971,"x_min":56,"x_max":915,"o":"m 56 674 q 85 817 56 750 q 164 933 114 883 q 281 1013 214 983 q 424 1042 347 1042 l 915 1042 l 915 796 l 424 796 q 376 786 399 796 q 338 760 354 776 q 311 721 321 743 q 301 674 301 699 l 301 643 l 915 643 l 915 368 q 886 225 915 292 q 807 108 857 158 q 690 29 757 58 q 546 0 622 0 l 56 0 l 56 246 l 546 246 q 594 256 571 246 q 633 282 617 265 q 660 321 650 299 q 669 368 669 343 l 669 399 l 56 399 l 56 674 z "},"t":{"ha":990,"x_min":56,"x_max":935,"o":"m 56 1042 l 935 1042 l 935 796 l 618 796 l 618 0 l 372 0 l 372 796 l 56 796 l 56 1042 z "},"u":{"ha":969,"x_min":56,"x_max":914,"o":"m 668 1042 l 914 1042 l 914 0 l 389 0 q 259 26 319 0 q 153 98 199 53 q 82 204 108 143 q 56 333 56 265 l 56 1042 l 301 1042 l 301 333 q 327 272 301 297 q 389 246 353 246 l 668 246 l 668 1042 z "},"v":{"ha":969,"x_min":56,"x_max":914,"o":"m 668 1053 l 914 1053 l 914 796 q 888 540 914 653 q 821 340 861 426 q 734 194 781 254 q 646 94 688 133 q 576 36 604 56 q 543 15 547 17 l 485 -17 l 426 15 q 394 37 422 18 q 324 94 365 56 q 235 194 282 133 q 149 340 189 254 q 82 540 108 426 q 56 796 56 653 l 56 1053 l 301 1053 l 301 796 q 320 603 301 688 q 366 455 339 518 q 426 348 393 392 q 485 278 458 304 q 544 348 513 304 q 603 455 576 392 q 649 603 631 518 q 668 796 668 688 l 668 1053 z "},"w":{"ha":1350,"x_min":56,"x_max":1294,"o":"m 1290 1083 l 1292 1083 q 1294 1086 1292 1083 q 1281 1072 1294 1086 q 1252 1024 1268 1057 q 1224 935 1236 990 q 1211 796 1211 879 l 1211 393 q 1210 122 1210 264 l 1210 0 l 56 0 l 56 1042 l 301 1042 l 301 246 l 510 246 l 510 1042 l 756 1042 l 756 246 l 965 246 l 965 796 q 992 1023 965 931 q 1053 1173 1019 1115 q 1119 1258 1088 1231 q 1157 1289 1150 1285 l 1290 1083 z "},"x":{"ha":971,"x_min":56,"x_max":915,"o":"m 915 1042 q 857 767 915 897 q 692 540 799 636 l 669 521 l 692 501 q 857 275 799 406 q 915 0 915 144 l 669 0 q 633 174 669 92 q 528 318 596 257 l 486 356 l 444 318 q 338 174 375 257 q 301 0 301 92 l 56 0 q 114 275 56 144 q 279 501 172 406 l 301 521 l 279 540 q 114 767 172 636 q 56 1042 56 897 l 301 1042 q 338 867 301 950 q 444 724 375 785 l 486 686 l 528 724 q 633 867 596 785 q 669 1042 669 950 l 915 1042 z "},"y":{"ha":971,"x_min":56,"x_max":915,"o":"m 669 1042 l 915 1042 l 915 333 q 889 204 915 265 q 817 98 863 143 q 712 26 772 53 q 582 0 651 0 l 56 0 l 56 246 l 582 246 q 644 272 618 246 q 669 333 669 297 l 669 385 q 556 389 614 385 q 441 406 499 393 q 330 444 383 419 q 229 513 276 469 q 98 721 140 592 q 56 1042 56 850 l 301 1042 q 394 694 301 778 q 497 644 432 660 q 669 629 561 629 l 669 1042 z "},"z":{"ha":969,"x_min":56,"x_max":914,"o":"m 382 311 q 321 246 342 286 l 668 246 l 668 425 l 914 425 l 914 0 l 56 0 l 56 164 q 108 367 56 274 q 251 519 160 461 l 588 731 q 649 796 628 756 l 301 796 l 301 625 l 56 625 l 56 1042 l 914 1042 l 914 878 q 863 674 914 768 q 718 522 811 581 l 382 311 z "},"/":{"ha":894,"x_min":69,"x_max":825,"o":"m 668 1042 l 825 1042 l 228 0 l 69 0 l 668 1042 z "},".":{"ha":421,"x_min":69,"x_max":351,"o":"m 211 264 q 266 253 240 264 q 310 222 292 242 q 340 177 329 203 q 351 122 351 151 q 340 68 351 93 q 310 24 329 43 q 266 -7 292 4 q 211 -18 240 -18 q 156 -7 182 -18 q 111 24 131 4 q 81 68 92 43 q 69 122 69 93 q 81 177 69 151 q 111 222 92 203 q 156 253 131 242 q 211 264 182 264 z "},",":{"ha":349,"x_min":69,"x_max":279,"o":"m 69 246 l 279 246 l 279 -133 l 138 -133 l 69 246 z "},"-":{"ha":750,"x_min":69,"x_max":681,"o":"m 69 692 l 681 692 l 681 446 l 69 446 l 69 692 z "},"+":{"ha":876,"x_min":69,"x_max":807,"o":"m 532 663 l 807 663 l 807 475 l 532 475 l 532 200 l 343 200 l 343 475 l 69 475 l 69 663 l 343 663 l 343 938 l 532 938 l 532 663 z "},"˜":{"ha":993,"x_min":69,"x_max":924,"o":"m 668 1511 q 771 1488 724 1511 q 852 1422 818 1464 q 905 1321 886 1379 q 924 1193 924 1263 l 719 1193 q 704 1273 719 1239 q 668 1307 689 1307 q 617 1294 643 1307 q 556 1257 592 1281 q 510 1228 535 1243 q 458 1201 486 1214 q 397 1181 429 1189 q 329 1174 365 1174 q 223 1197 271 1174 q 141 1263 175 1221 q 88 1365 107 1306 q 69 1497 69 1425 l 275 1497 q 276 1474 275 1493 q 283 1433 278 1454 q 299 1394 288 1411 q 329 1378 310 1378 q 382 1392 356 1378 q 444 1429 408 1406 q 490 1458 465 1443 q 542 1484 514 1472 q 601 1503 569 1496 q 668 1511 632 1511 z "},":":{"ha":419,"x_min":69,"x_max":350,"o":"m 210 919 q 265 908 239 919 q 309 878 290 897 q 339 833 328 858 q 350 778 350 807 q 339 723 350 749 q 309 678 328 697 q 265 649 290 660 q 210 638 239 638 q 155 649 181 638 q 110 678 129 660 q 81 723 92 697 q 69 778 69 749 q 81 833 69 807 q 110 878 92 858 q 155 908 129 897 q 210 919 181 919 m 210 264 q 265 253 239 264 q 309 222 290 242 q 339 177 328 203 q 350 122 350 151 q 339 68 350 93 q 309 24 328 43 q 265 -7 290 4 q 210 -18 239 -18 q 155 -7 181 -18 q 110 24 129 4 q 81 68 92 43 q 69 122 69 93 q 81 177 69 151 q 110 222 92 203 q 155 253 129 242 q 210 264 181 264 z "},";":{"ha":421,"x_min":69,"x_max":351,"o":"m 211 638 q 156 649 182 638 q 111 678 131 660 q 81 723 92 697 q 69 778 69 749 q 81 833 69 807 q 111 878 92 858 q 156 908 131 897 q 211 919 182 919 q 266 908 240 919 q 310 878 292 897 q 340 833 329 858 q 351 778 351 807 q 340 723 351 749 q 310 678 329 697 q 266 649 292 660 q 211 638 240 638 m 106 246 l 315 246 l 315 -133 l 174 -133 l 106 246 z "},"=":{"ha":878,"x_min":69,"x_max":808,"o":"m 69 756 l 808 756 l 808 568 l 69 568 l 69 756 m 69 447 l 808 447 l 808 260 l 69 260 l 69 447 z "},"'":{"ha":349,"x_min":69,"x_max":279,"o":"m 69 1175 l 279 1175 l 246 796 l 101 796 l 69 1175 z "},"\"":{"ha":597,"x_min":69,"x_max":528,"o":"m 318 1175 l 528 1175 l 496 796 l 351 796 l 318 1175 m 69 1175 l 279 1175 l 246 796 l 101 796 l 69 1175 z "},"‘":{"ha":349,"x_min":69,"x_max":279,"o":"m 247 796 l 103 796 l 69 1175 l 279 1175 l 247 796 z "},"’":{"ha":349,"x_min":69,"x_max":279,"o":"m 69 1175 l 279 1175 l 247 796 l 103 796 l 69 1175 z "},"“":{"ha":599,"x_min":69,"x_max":529,"o":"m 319 1175 l 529 1175 l 496 796 l 351 796 l 319 1175 m 247 796 l 103 796 l 69 1175 l 279 1175 l 247 796 z "},"”":{"ha":597,"x_min":69,"x_max":528,"o":"m 318 1175 l 528 1175 l 496 796 l 351 796 l 318 1175 m 69 1175 l 279 1175 l 246 796 l 101 796 l 69 1175 z "},"•":{"ha":597,"x_min":69,"x_max":528,"o":"m 299 838 q 388 819 346 838 q 460 771 429 801 q 510 699 492 740 q 528 610 528 657 q 510 521 528 563 q 460 448 492 479 q 388 399 429 417 q 299 381 346 381 q 210 399 251 381 q 137 448 168 417 q 88 521 106 479 q 69 610 69 563 q 88 699 69 657 q 137 771 106 740 q 210 819 168 801 q 299 838 251 838 z "},"_":{"ha":878,"x_min":69,"x_max":808,"o":"m 69 0 l 808 0 l 808 -150 l 69 -150 l 69 0 z "},"–":{"ha":944,"x_min":69,"x_max":875,"o":"m 69 692 l 875 692 l 875 446 l 69 446 l 69 692 z "},"—":{"ha":1114,"x_min":69,"x_max":1044,"o":"m 69 692 l 1044 692 l 1044 446 l 69 446 l 69 692 z "},"±":{"ha":878,"x_min":69,"x_max":808,"o":"m 533 756 l 808 756 l 808 568 l 533 568 l 533 293 l 344 293 l 344 568 l 69 568 l 69 756 l 344 756 l 344 1031 l 533 1031 l 533 756 m 69 189 l 808 189 l 808 0 l 69 0 l 69 189 z "},"×":{"ha":794,"x_min":69,"x_max":725,"o":"m 725 764 l 531 569 l 725 375 l 592 242 l 397 436 l 203 242 l 69 375 l 264 569 l 69 764 l 203 896 l 397 701 l 592 896 l 725 764 z "},"`":{"ha":581,"x_min":69,"x_max":511,"o":"m 332 1461 l 511 1154 l 321 1154 l 69 1461 l 332 1461 z "},"~":{"ha":1250,"x_min":69,"x_max":1181,"o":"m 857 683 q 987 653 928 683 q 1089 568 1046 622 q 1156 440 1132 514 q 1181 276 1181 365 l 951 276 q 945 342 951 310 q 926 399 939 374 q 897 439 914 424 q 857 454 879 454 q 780 435 817 454 q 692 383 743 417 q 631 345 663 365 q 563 310 599 325 q 485 284 526 294 q 397 274 444 274 q 263 303 324 274 q 160 388 203 333 q 93 518 117 442 q 69 688 69 594 l 299 688 q 301 640 299 671 q 314 579 304 610 q 343 526 324 549 q 397 503 363 503 q 476 522 438 503 q 567 575 514 542 q 626 613 594 593 q 694 647 658 632 q 771 673 731 663 q 857 683 811 683 z "},"*":{"ha":636,"x_min":69,"x_max":567,"o":"m 399 703 l 318 858 l 236 703 l 119 788 l 243 913 l 69 942 l 114 1079 l 271 1001 l 246 1175 l 390 1175 l 364 1001 l 522 1079 l 567 942 l 393 913 l 517 788 l 399 703 z "},"^":{"ha":976,"x_min":69,"x_max":907,"o":"m 590 1042 l 907 246 l 661 246 l 488 746 l 315 246 l 69 246 l 385 1042 l 590 1042 z "},"!":{"ha":422,"x_min":69,"x_max":353,"o":"m 69 1042 l 353 1042 l 290 357 l 131 357 l 69 1042 m 211 264 q 266 253 240 264 q 310 222 292 242 q 340 177 329 203 q 351 122 351 151 q 340 68 351 93 q 310 24 329 43 q 266 -7 292 4 q 211 -18 240 -18 q 156 -7 182 -18 q 112 24 131 4 q 82 68 93 43 q 71 122 71 93 q 82 177 71 151 q 112 222 93 203 q 156 253 131 242 q 211 264 182 264 z "},"?":{"ha":999,"x_min":69,"x_max":929,"o":"m 69 1042 l 929 1042 l 929 890 q 786 556 929 661 q 663 495 728 511 q 535 468 597 479 q 451 451 481 458 q 406 431 421 443 q 389 402 392 419 q 386 357 386 385 l 140 357 q 272 638 140 547 q 382 686 324 672 q 494 710 440 700 q 562 722 532 717 q 613 737 592 728 q 649 760 635 746 q 671 796 663 774 l 69 796 l 69 1042 m 263 264 q 317 253 292 264 q 362 222 343 242 q 392 177 381 203 q 403 122 403 151 q 392 68 403 93 q 362 24 381 43 q 317 -7 343 4 q 263 -18 292 -18 q 208 -7 233 -18 q 163 24 182 4 q 133 68 144 43 q 122 122 122 93 q 133 177 122 151 q 163 222 144 203 q 208 253 182 242 q 263 264 233 264 z "},"$":{"ha":999,"x_min":69,"x_max":929,"o":"m 589 1042 l 929 1042 l 929 796 l 439 796 q 391 786 414 796 q 351 760 368 776 q 325 721 335 743 q 315 674 315 699 l 315 643 l 929 643 l 929 368 q 903 231 929 296 q 831 118 876 167 q 722 38 785 69 q 589 1 660 7 l 589 -282 l 410 -282 l 410 0 l 69 0 l 69 246 l 560 246 q 608 256 585 246 q 647 282 631 265 q 674 321 664 299 q 683 368 683 343 l 683 399 l 69 399 l 69 674 q 96 810 69 746 q 168 924 122 875 q 276 1003 214 972 q 410 1040 339 1035 l 410 1249 l 589 1249 l 589 1042 z "},"|":{"ha":319,"x_min":69,"x_max":250,"o":"m 69 1249 l 250 1249 l 250 -282 l 69 -282 l 69 1249 z "},"\\":{"ha":776,"x_min":69,"x_max":707,"o":"m 250 1042 l 707 0 l 526 0 l 69 1042 l 250 1042 z "},"<":{"ha":713,"x_min":69,"x_max":643,"o":"m 69 671 l 643 903 l 643 739 l 244 589 l 643 440 l 643 276 l 69 507 l 69 671 z "},">":{"ha":713,"x_min":69,"x_max":643,"o":"m 69 903 l 643 671 l 643 507 l 69 276 l 69 440 l 468 589 l 69 739 l 69 903 z "},"#":{"ha":1122,"x_min":69,"x_max":1053,"o":"m 896 811 l 1053 811 l 1026 632 l 868 632 l 835 410 l 993 410 l 965 231 l 808 231 l 774 0 l 593 0 l 628 231 l 407 231 l 372 0 l 192 0 l 226 231 l 69 231 l 96 410 l 254 410 l 288 632 l 129 632 l 157 811 l 314 811 l 349 1042 l 529 1042 l 494 811 l 715 811 l 750 1042 l 931 1042 l 896 811 m 689 632 l 468 632 l 433 410 l 654 410 l 689 632 z "},"@":{"ha":1213,"x_min":69,"x_max":1143,"o":"m 69 611 q 107 796 69 710 q 208 946 144 882 q 359 1047 272 1010 q 543 1085 446 1085 l 1143 1085 l 1143 543 q 1115 405 1143 469 q 1039 292 1088 340 q 926 215 990 243 q 788 188 861 188 l 314 188 l 314 619 q 333 711 314 668 q 384 786 351 754 q 460 837 417 818 q 551 856 503 856 l 865 856 l 865 361 q 951 433 918 385 q 985 543 985 482 l 985 928 l 543 928 q 420 903 478 928 q 319 835 363 878 q 251 734 276 792 q 226 611 226 676 l 226 119 l 832 119 l 832 -37 l 69 -37 l 69 611 m 708 699 l 551 699 q 495 675 518 699 q 472 619 472 651 l 472 346 l 708 346 l 708 699 z "},"€":{"ha":1100,"x_min":69,"x_max":1031,"o":"m 506 350 q 547 276 513 306 q 628 246 582 246 l 1031 246 l 1031 0 l 628 0 q 489 27 554 0 q 374 102 424 54 q 294 214 324 150 q 260 350 264 278 l 69 350 l 69 482 l 258 482 l 258 560 l 69 560 l 69 692 l 258 692 l 258 1042 l 1031 1042 l 1031 796 l 504 796 l 504 692 l 914 692 l 914 560 l 504 560 l 504 482 l 914 482 l 914 350 l 506 350 z "},"%":{"ha":1731,"x_min":69,"x_max":1661,"o":"m 717 631 q 699 540 717 583 q 649 466 681 497 q 574 416 617 435 q 483 397 532 397 l 303 397 q 212 416 254 397 q 138 466 169 435 q 88 540 106 497 q 69 631 69 583 l 69 811 q 88 902 69 860 q 138 976 106 944 q 212 1027 169 1008 q 303 1046 254 1046 l 483 1046 q 574 1027 532 1046 q 649 976 617 1008 q 699 902 681 944 q 717 811 717 860 l 717 631 m 1283 1042 l 626 0 l 446 0 l 1103 1042 l 1283 1042 m 282 631 q 288 616 282 622 q 303 610 294 610 l 483 610 q 498 616 492 610 q 504 631 504 622 l 504 811 q 498 826 504 821 q 483 832 492 832 l 303 832 q 288 826 294 832 q 282 811 282 821 l 282 631 m 1426 649 q 1517 630 1475 649 q 1592 579 1560 611 q 1642 505 1624 547 q 1661 414 1661 463 l 1661 233 q 1642 143 1661 186 q 1592 69 1624 100 q 1517 19 1560 38 q 1426 0 1475 0 l 1246 0 q 1156 19 1199 0 q 1081 69 1113 38 q 1031 143 1050 100 q 1013 233 1013 186 l 1013 414 q 1031 505 1013 463 q 1081 579 1050 547 q 1156 630 1113 611 q 1246 649 1199 649 l 1426 649 m 1449 414 q 1426 435 1449 435 l 1246 435 q 1231 429 1238 435 q 1225 414 1225 424 l 1225 233 q 1231 219 1225 225 q 1246 213 1238 213 l 1426 213 q 1442 219 1436 213 q 1449 233 1449 225 l 1449 414 z "},"&":{"ha":1164,"x_min":69,"x_max":1094,"o":"m 383 796 q 441 702 396 739 q 547 665 486 665 l 1094 665 l 1094 419 l 928 419 l 928 246 l 1094 246 l 1094 0 l 69 0 l 69 325 q 107 481 69 410 q 207 599 144 551 q 153 707 172 649 q 135 832 135 765 l 135 1042 l 928 1042 l 928 796 l 383 796 m 682 419 l 408 419 q 342 392 369 419 q 314 325 314 364 l 314 246 l 682 246 l 682 419 z "},"(":{"ha":481,"x_min":69,"x_max":411,"o":"m 411 1108 q 381 1072 408 1106 q 320 968 353 1038 q 260 790 288 899 q 233 532 233 682 q 260 274 233 382 q 320 97 288 167 q 381 -7 353 26 q 411 -43 408 -40 l 251 -43 q 191 42 222 -12 q 133 170 160 96 q 88 335 106 244 q 69 531 69 426 l 69 535 q 88 730 69 639 q 133 895 106 821 q 191 1024 160 969 q 251 1108 222 1078 l 411 1108 z "},")":{"ha":481,"x_min":69,"x_max":411,"o":"m 411 531 q 393 335 411 426 q 349 170 375 244 q 290 42 322 96 q 231 -43 258 -12 l 69 -43 q 100 -7 72 -40 q 160 97 128 26 q 220 274 193 167 q 247 532 247 382 q 220 790 247 682 q 160 968 193 899 q 100 1072 128 1038 q 69 1108 72 1106 l 231 1108 q 290 1024 258 1078 q 349 895 322 969 q 393 730 375 821 q 411 535 411 639 l 411 531 z "},"{":{"ha":550,"x_min":69,"x_max":481,"o":"m 165 910 q 181 988 165 951 q 223 1051 196 1024 q 285 1093 250 1078 q 363 1108 321 1108 l 481 1108 l 481 1001 l 382 1001 q 344 986 360 1001 q 329 947 329 971 l 329 678 q 300 589 329 628 q 226 535 271 550 q 300 480 271 519 q 329 390 329 440 l 329 121 q 344 83 329 99 q 382 68 360 68 l 481 68 l 481 -39 l 363 -39 q 285 -24 321 -39 q 223 19 250 -8 q 181 82 196 46 q 165 158 165 118 l 165 435 q 153 465 165 453 q 124 476 140 476 l 69 476 l 69 593 l 124 593 q 153 605 140 593 q 165 635 165 617 l 165 910 z "},"}":{"ha":549,"x_min":69,"x_max":479,"o":"m 385 635 q 397 605 385 617 q 426 593 408 593 l 479 593 l 479 476 l 426 476 q 397 465 408 476 q 385 435 385 453 l 385 158 q 369 82 385 118 q 327 19 354 46 q 264 -24 300 -8 q 188 -39 228 -39 l 69 -39 l 69 68 l 167 68 q 206 83 190 68 q 221 121 221 99 l 221 390 q 250 480 221 440 q 324 535 279 519 q 250 589 279 550 q 221 678 221 628 l 221 947 q 206 986 221 971 q 167 1001 190 1001 l 69 1001 l 69 1108 l 188 1108 q 264 1093 228 1108 q 327 1051 300 1078 q 369 988 354 1024 q 385 910 385 951 l 385 635 z "},"[":{"ha":454,"x_min":69,"x_max":385,"o":"m 385 1108 l 385 1001 l 233 1001 l 233 68 l 385 68 l 385 -39 l 69 -39 l 69 1108 l 385 1108 z "},"]":{"ha":456,"x_min":69,"x_max":386,"o":"m 386 1108 l 386 -39 l 69 -39 l 69 68 l 222 68 l 222 1001 l 69 1001 l 69 1108 l 386 1108 z "}}}
